<svg width="100%" height="100%" viewBox="0 0 1200 1200" version="1.1" xmlns="http://www.w3.org/2000/svg" xmlns:xlink="http://www.w3.org/1999/xlink" xml:space="preserve" style="fill-rule:evenodd;clip-rule:evenodd;stroke-linejoin:round;stroke-miterlimit:2;">
    <path d="M1026,30L174,30C94.801,30 30,94.801 30,174L30,1024.8C30,1104 94.801,1168.8 174,1168.8L1024.8,1168.8C1104,1168.8 1168.8,1104 1168.8,1024.8L1168.8,174C1170,94.801 1105.2,30 1026,30ZM1076.4,1026C1076.4,1053.6 1053.6,1077.6 1024.8,1077.6L173.996,1077.6C146.394,1077.6 122.394,1054.8 122.394,1026L122.394,174C122.394,146.398 145.195,122.398 173.996,122.398L1024.8,122.398C1052.4,122.398 1076.4,145.199 1076.4,174L1076.4,1026Z" style="fill-rule:nonzero;fill:currentColor;"/>
    <g transform="matrix(1.1747,0,0,1.1747,-364.197,-105.415)">
        <path d="M994.503,450.297L970.503,426.297C962.104,417.899 947.702,417.899 939.304,426.297L820.803,544.798L702.302,426.297C693.904,417.899 679.501,417.899 671.103,426.297L647.103,450.297C638.705,458.696 638.705,473.098 647.103,481.496L765.604,599.997L647.103,718.498C638.705,726.896 638.705,741.299 647.103,749.697L671.103,773.697C679.502,782.095 693.904,782.095 702.302,773.697L820.803,655.196L939.304,773.697C947.702,782.095 962.105,782.095 970.503,773.697L994.503,749.697C1002.9,741.298 1002.9,726.896 994.503,718.498L876.002,600L994.503,481.499C1002.9,473.097 1002.9,458.698 994.503,450.296L994.503,450.297Z" style="fill-rule:nonzero;fill:currentColor;"/>
    </g>
</svg>
