<?xml version="1.0" encoding="UTF-8"?>
<svg width="1200pt" height="1200pt" version="1.1" viewBox="0 0 1200 1200" xmlns="http://www.w3.org/2000/svg">
 <path d="m1026 30h-852c-79.199 0-144 64.801-144 144v850.8c0 79.199 64.801 144 144 144h850.8c79.199 0 144-64.801 144-144v-850.8c1.1992-79.199-63.602-144-142.8-144zm50.398 996c0 27.602-22.801 51.602-51.602 51.602h-850.8c-27.602 0-51.602-22.801-51.602-51.602v-852c0-27.602 22.801-51.602 51.602-51.602h850.8c27.602 0 51.602 22.801 51.602 51.602z" fill="currentColor"/>
 <path d="m823.2 564-333.6-222c-28.801-19.199-67.199 1.1992-67.199 36v444c0 34.801 38.398 55.199 67.199 36l333.6-222c26.402-16.801 26.402-55.199 0-72z" fill="currentColor"/>
</svg>
