<?xml version="1.0" encoding="UTF-8"?>
<svg width="1200pt" height="1200pt" version="1.1" viewBox="0 0 1200 1200" xmlns="http://www.w3.org/2000/svg">
 <path d="m549.98 900c0 54.984-45 99.984-99.984 99.984s-99.984-45-99.984-99.984 45-99.984 99.984-99.984 99.984 45 99.984 99.984zm-99.984-399.98c-54.984 0-99.984 45-99.984 99.984s45 99.984 99.984 99.984 99.984-45 99.984-99.984-45-99.984-99.984-99.984zm0-300c-54.984 0-99.984 45-99.984 99.984s45 99.984 99.984 99.984 99.984-45 99.984-99.984-45-99.984-99.984-99.984zm300 199.97c54.984 0 99.984-45 99.984-99.984s-45-99.984-99.984-99.984-99.984 45-99.984 99.984 45 99.984 99.984 99.984zm0 100.03c-54.984 0-99.984 45-99.984 99.984s45 99.984 99.984 99.984 99.984-45 99.984-99.984-45-99.984-99.984-99.984zm0 300c-54.984 0-99.984 45-99.984 99.984s45 99.984 99.984 99.984 99.984-45 99.984-99.984-45-99.984-99.984-99.984z" fill="currentColor"/>
</svg>
